<?xml version="1.0" standalone="no"?>
<!DOCTYPE svg PUBLIC "-//W3C//DTD SVG 20010904//EN"
 "http://www.w3.org/TR/2001/REC-SVG-20010904/DTD/svg10.dtd">
<svg version="1.0" xmlns="http://www.w3.org/2000/svg"
 width="192.000000pt" height="192.000000pt" viewBox="0 0 192.000000 192.000000"
 preserveAspectRatio="xMidYMid meet">

<g transform="translate(0.000000,192.000000) scale(0.100000,-0.100000)"
fill="#000000" stroke="none">
<path d="M508 1453 c-61 -64 -71 -85 -78 -173 -6 -73 -7 -74 -14 -32 -10 48
-18 52 -34 17 -17 -38 -15 -109 5 -151 l18 -36 -27 -19 c-29 -21 -53 -80 -44
-106 6 -14 10 -13 31 7 l24 23 -8 -30 c-9 -32 4 -73 25 -80 6 -2 16 11 22 29
8 26 9 12 5 -67 -8 -143 10 -172 156 -245 88 -44 88 -31 -1 18 -137 75 -162
128 -113 234 22 46 25 62 19 115 -5 50 -3 67 12 93 19 30 19 31 24 8 4 -16 14
-24 35 -26 16 -2 34 -10 40 -18 15 -21 50 -7 62 26 13 33 55 49 78 30 20 -16
19 -22 -5 -48 -11 -12 -20 -24 -20 -27 0 -10 372 -5 417 7 30 7 59 24 82 47
38 38 76 127 66 153 -7 17 -47 38 -72 38 -9 0 -31 16 -49 35 -20 22 -41 35
-57 35 -15 0 -38 12 -55 29 -50 51 -122 59 -192 21 -19 -10 -26 -8 -49 13 -14
13 -36 30 -49 36 -30 16 -93 16 -120 2 -19 -10 -22 -9 -22 9 0 11 -6 20 -13
20 -16 0 -47 -32 -47 -48 0 -6 -5 -14 -11 -18 -13 -8 -2 75 12 91 11 11 12 35
1 35 -4 0 -28 -21 -54 -47z"/>
<path d="M1302 1141 c-18 -57 -15 -87 11 -117 20 -23 33 -27 95 -32 40 -2 72
-8 72 -12 0 -4 -40 -12 -88 -17 -144 -16 -164 -40 -206 -250 -32 -162 -32
-177 -2 -196 46 -31 70 -31 92 0 32 44 162 146 186 147 17 1 31 17 56 66 32
60 34 70 29 138 l-4 73 23 -22 c33 -31 31 -9 -4 66 -29 61 -91 126 -133 141
-22 8 -22 9 11 14 l35 7 -37 16 c-21 9 -57 17 -81 17 -42 0 -44 -1 -55 -39z"/>
<path d="M540 941 c-16 -31 -12 -66 10 -86 18 -17 21 -17 45 -1 14 9 25 26 26
39 1 17 3 14 10 -10 12 -40 29 -43 29 -5 0 60 -95 109 -120 63z"/>
<path d="M966 840 c1 -66 5 -127 8 -137 6 -15 8 -14 21 4 8 12 12 28 9 36 -8
23 43 59 67 46 53 -28 -14 -139 -83 -139 -25 0 -98 -51 -98 -69 0 -11 133 4
163 19 25 12 30 11 56 -14 l29 -28 6 29 c21 103 45 280 40 302 -4 14 -16 36
-27 49 -18 19 -30 22 -106 22 l-86 0 1 -120z"/>
<path d="M766 911 c-12 -13 -16 -32 -14 -58 3 -36 5 -38 38 -38 33 0 36 2 46
45 l11 45 13 -40 c23 -72 53 -77 31 -5 -19 65 -87 93 -125 51z"/>
<path d="M1766 635 c-9 -26 -7 -32 5 -12 6 10 9 21 6 23 -2 3 -7 -2 -11 -11z"/>
<path d="M1681 475 c-53 -82 -151 -180 -229 -231 -32 -22 -68 -45 -78 -52 -10
-7 0 -3 22 8 100 47 268 211 320 312 24 46 11 32 -35 -37z"/>
<path d="M330 346 c0 -2 8 -10 18 -17 15 -13 16 -12 3 4 -13 16 -21 21 -21 13z"/>
<path d="M389 297 c15 -19 71 -61 71 -54 0 2 -19 19 -42 37 -24 19 -37 26 -29
17z"/>
<path d="M500 216 c0 -3 14 -12 30 -21 17 -9 30 -13 30 -11 0 3 -13 12 -30 21
-16 9 -30 13 -30 11z"/>
<path d="M600 161 c19 -10 46 -21 60 -25 14 -3 1 5 -29 19 -62 29 -83 33 -31
6z"/>
<path d="M1290 155 c-14 -8 -20 -14 -15 -14 6 0 21 6 35 14 14 8 21 14 15 14
-5 0 -21 -6 -35 -14z"/>
<path d="M705 120 c11 -5 27 -9 35 -9 9 0 8 4 -5 9 -11 5 -27 9 -35 9 -9 0 -8
-4 5 -9z"/>
<path d="M1178 113 c7 -3 16 -2 19 1 4 3 -2 6 -13 5 -11 0 -14 -3 -6 -6z"/>
<path d="M768 103 c6 -2 18 -2 25 0 6 3 1 5 -13 5 -14 0 -19 -2 -12 -5z"/>
<path d="M1128 103 c6 -2 18 -2 25 0 6 3 1 5 -13 5 -14 0 -19 -2 -12 -5z"/>
<path d="M823 93 c9 -2 23 -2 30 0 6 3 -1 5 -18 5 -16 0 -22 -2 -12 -5z"/>
<path d="M1073 93 c9 -2 23 -2 30 0 6 3 -1 5 -18 5 -16 0 -22 -2 -12 -5z"/>
<path d="M928 83 c17 -2 47 -2 65 0 17 2 3 4 -33 4 -36 0 -50 -2 -32 -4z"/>
</g>
</svg>
