<?xml version="1.0" encoding="utf-8"?>
<svg viewBox="0 0 640 480" xmlns="http://www.w3.org/2000/svg">
  <defs>
    <clipPath id="ir-a">
      <path fill-opacity=".7" d="M-85.3 0h682.7v512H-85.3z"/>
    </clipPath>
  </defs>
  <g fill-rule="evenodd" clip-path="url(#ir-a)" transform="matrix(0.9375001192092897, 0, 0, 0.9375001192092897, 80, 0)">
    <path fill="#fff" d="M-192 0h896v512h-896z"/>
    <path fill="#da0000" d="M-192 343.8h896V512h-896z"/>
    <g fill="#fff" stroke-width="1pt">
      <path d="M622.7 351h49v3.3h-49zm7.3 16.8h3.4v3.3H630zm41.9 0v3.3H662v-3.4zm5.3-16.8h3.3v20h-3.4z"/>
      <path d="M696.7 367.7v3.4H678v-3.4zm-34.6-7.9h3.4v11.3H662z"/>
      <path d="M694 351h3.3v20h-3.4zm-8.5 0h3.4v20h-3.4zm-44.8 8v3.4h-18V359zm39.3 0v3.4h-18V359z"/>
      <path d="M662 359.9h3.5V371H662z"/>
      <path d="M662 359.9h3.5V371H662z"/>
      <path d="M662 359.9h3.5V371H662zm-39.2 0h3.4V371h-3.4zm28.8 0h3.4V371h-3.4zm-14.3 0h3.4V371h-3.4z"/>
      <path d="M654 367.7v3.4h-15.2v-3.4zm1-8.7v3.4h-9.6V359z"/>
    </g>
    <path fill="#239f40" d="M-192 0h896v168.2h-896z"/>
    <g fill="#fff" stroke-width="1pt">
      <path d="M-183.8 351h49v3.3h-49zm7.3 16.8h3.4v3.3h-3.4zm42 0v3.3h-9.9v-3.4zm5.2-16.8h3.4v20h-3.4z"/>
      <path d="M-109.8 367.7v3.4h-18.6v-3.4zm-34.6-7.9h3.4v11.3h-3.4z"/>
      <path d="M-112.5 351h3.3v20h-3.3zm-8.5 0h3.4v20h-3.4zm-44.8 8v3.4h-17.9V359zm39.3 0v3.4h-17.9V359z"/>
      <path d="M-144.4 359.9h3.4V371h-3.4z"/>
      <path d="M-144.4 359.9h3.4V371h-3.4z"/>
      <path d="M-144.4 359.9h3.4V371h-3.4zm-39.3 0h3.4V371h-3.4zm28.8 0h3.4V371h-3.4zm-14.3 0h3.4V371h-3.4z"/>
      <path d="M-152.5 367.7v3.4h-15.2v-3.4zm1-8.7v3.4h-9.6V359z"/>
    </g>
    <g fill="#fff" stroke-width="1pt">
      <path d="M622.7 143.4h49v3.4h-49zm7.3 17h3.4v3.2H630zm41.9-.2v3.4H662v-3.4zm5.3-16.8h3.3v20.2h-3.4z"/>
      <path d="M696.7 160.2v3.4H678v-3.4zm-34.6-7.9h3.4v11.3H662z"/>
      <path d="M694 143.4h3.3v20.2h-3.4zm-8.5 0h3.4v20.2h-3.4zm-44.8 8v3.4h-18v-3.3zm39.3 0v3.4h-18v-3.3z"/>
      <path d="M662 152.3h3.5v11.3H662z"/>
      <path d="M662 152.3h3.5v11.3H662z"/>
      <path d="M662 152.3h3.5v11.3H662zm-39.2 0h3.4v11.3h-3.4zm28.8 0h3.4v11.3h-3.4zm-14.3 0h3.4v11.3h-3.4z"/>
      <path d="M654 160.2v3.4h-15.2v-3.4zm1-8.7v3.3h-9.6v-3.3z"/>
    </g>
    <g fill="#fff" stroke-width="1pt">
      <path d="M-183.8 143.4h49v3.4h-49zm7.3 17h3.4v3.2h-3.4zm42-.2v3.4h-9.9v-3.4zm5.2-16.8h3.4v20.2h-3.4z"/>
      <path d="M-109.8 160.2v3.4h-18.6v-3.4zm-34.6-7.9h3.4v11.3h-3.4z"/>
      <path d="M-112.5 143.4h3.3v20.2h-3.3zm-8.5 0h3.4v20.2h-3.4zm-44.8 8v3.4h-17.9v-3.3zm39.3 0v3.4h-17.9v-3.3z"/>
      <path d="M-144.4 152.3h3.4v11.3h-3.4z"/>
      <path d="M-144.4 152.3h3.4v11.3h-3.4z"/>
      <path d="M-144.4 152.3h3.4v11.3h-3.4zm-39.3 0h3.4v11.3h-3.4zm28.8 0h3.4v11.3h-3.4zm-14.3 0h3.4v11.3h-3.4z"/>
      <path d="M-152.5 160.2v3.4h-15.2v-3.4zm1-8.7v3.3h-9.6v-3.3z"/>
    </g>
  </g>
</svg>