<?xml version="1.0" encoding="utf-8"?>
<svg version="1.1" id="Layer_1" xmlns="http://www.w3.org/2000/svg" xmlns:xlink="http://www.w3.org/1999/xlink" x="0px" y="0px"
	 width="500px" height="302px" viewBox="0 0 500 302" enable-background="new 0 0 500 302" xml:space="preserve">
<rect x="0" fill="#00923F" width="500" height="100.667"/>
<rect x="0" y="100.667" fill="#FFFFFF" width="500" height="100.667"/>
<rect x="0" y="201.334" fill="#DA251D" width="499.998" height="100.666"/>
<g id="_x30_TIHPI.tif_1_">
</g>
<g>
	<g>
		<g>
			<path fill="#F8C300" d="M204.033,125.177c2.605,1.187,6.812,3.054,11.559,5.141c-2.059-0.355-3.825-0.655-5.144-0.871
				l4.766,5.298l0.357,2.749c1.107,2.598,1.928,5.553,2.479,8.684c2.213,0.025,4.823,0.111,7.594,0.207
				c3.844,0.131,7.818,0.266,11.45,0.266c2.665,0,4.757-0.072,6.396-0.225c3.067-0.266,6.193-0.615,9.218-0.953
				c6.583-0.736,13.39-1.498,20.25-1.498c2.098,0,4.146,0.072,6.086,0.217c5.604,0.387,10.323,2.025,14.057,4.846
				c1.426,0.283,3.485,0.971,4.162,1.299c0.82,0.395,3.338,2.127,5.751,2.606c1.193,0.236,6.092-0.52,7.146-1.309
				c-0.674-1.133-4.907-3.707-6.102-3.947c-2.413-0.479-5.4,0.158-6.312,0.211c-0.911,0.053-3.931-0.182-5.146-0.59
				c0,0-10.051-3.166-14.17-4.25c-1.005-0.266-3.633-0.873-7.049-1.641c7.2-0.156,13.295-0.318,15.133-0.432
				c3.81-0.233,11.707-1.048,15.634-1.464c-0.568-0.856-1.102-1.74-1.573-2.657c-4.194-0.438-10.709-1.091-14.061-1.297
				c-1.838-0.113-7.934-0.275-15.135-0.432c3.416-0.768,6.046-1.375,7.051-1.641c4.119-1.086,14.168-4.252,14.168-4.252
				c1.219-0.408,4.236-0.641,5.146-0.588c0.079,0.004,0.19,0.018,0.3,0.03c-0.104-0.937-0.145-1.884-0.115-2.839
				c-0.271,0.158-0.511,0.295-0.67,0.371c-0.821,0.396-3.698,1.336-4.979,1.424c0,0-10.495,0.922-14.718,1.496
				c-1.029,0.139-3.691,0.584-7.144,1.182c6.594-2.9,12.164-5.383,13.817-6.191c4.671-2.277,15.938-8.453,15.938-8.453
				c0.375-0.216,0.921-0.447,1.534-0.674c1.779-2.354,4.114-4.417,6.646-5.751c1.643-0.864,3.393-1.284,5.354-1.284
				c1.619,0,3.122,0.293,4.447,0.552c0.104,0.021,0.202,0.038,0.306,0.058c0.836-0.891,1.498-1.728,1.684-2.254
				c-1.449-0.691-7.488-0.432-8.858,0.135c-2.771,1.146-5.371,3.82-6.259,4.49c-0.889,0.67-4.104,2.477-5.616,2.887
				c0,0-12.334,3.6-17.248,5.289c-1.741,0.6-7.436,2.783-14.146,5.395c2.861-2.018,5.06-3.586,5.886-4.215
				c3.392-2.578,11.466-9.348,11.466-9.348c0.967-0.844,3.665-2.215,4.525-2.516c0.859-0.299,3.867-0.855,5.912-2.221
				c1.012-0.676,3.938-4.674,4.127-5.98c-1.277-0.324-6.092,0.85-7.104,1.527c-2.045,1.365-3.709,3.93-4.314,4.611
				c-0.606,0.68-2.906,2.646-4.057,3.219c0,0-9.343,4.869-13.024,7.014c-0.896,0.523-3.188,1.953-6.146,3.826
				c4.98-5.203,9.178-9.629,10.396-11.008c3.443-3.893,11.488-13.91,11.488-13.91c0.957-1.24,3.858-3.52,4.817-4.084
				c0.957-0.564,4.421-1.943,6.544-4.064c1.047-1.049,3.598-6.529,3.512-8.135c-1.605-0.084-7.084,2.465-8.135,3.514
				c-2.119,2.121-3.5,5.586-4.062,6.543c-0.563,0.959-2.846,3.859-4.086,4.816c0,0-10.016,8.047-13.908,11.488
				c-1.38,1.221-5.807,5.418-11.01,10.4c1.873-2.961,3.305-5.252,3.828-6.148c2.145-3.682,7.014-13.025,7.014-13.025
				c0.57-1.148,2.539-3.447,3.221-4.055c0.681-0.605,3.245-2.27,4.611-4.314c0.676-1.014,1.85-5.826,1.525-7.104
				c-1.307,0.188-5.306,3.115-5.981,4.127c-1.366,2.043-1.921,5.051-2.22,5.912c-0.303,0.861-1.672,3.559-2.516,4.525
				c0,0-6.77,8.074-9.349,11.465c-0.631,0.828-2.199,3.027-4.219,5.891c2.613-6.715,4.797-12.412,5.396-14.152
				c1.691-4.914,5.289-17.248,5.289-17.248c0.412-1.512,2.22-4.729,2.89-5.615c0.67-0.889,3.342-3.488,4.489-6.26
				c0.566-1.371,0.824-7.41,0.134-8.859c-1.517,0.535-5.604,4.988-6.172,6.359c-1.146,2.77-1.097,6.5-1.25,7.6
				c-0.154,1.102-1.15,4.654-1.931,6.014c0,0-6.176,11.268-8.455,15.936c-0.807,1.654-3.291,7.227-6.19,13.822
				c0.598-3.451,1.043-6.115,1.184-7.146c0.574-4.221,1.494-14.717,1.494-14.717c0.09-1.281,1.027-4.158,1.426-4.979
				c0.396-0.82,2.129-3.34,2.609-5.752c0.236-1.193-0.521-6.092-1.312-7.146c-1.133,0.674-3.709,4.908-3.946,6.102
				c-0.478,2.412,0.157,5.402,0.211,6.311c0.053,0.912-0.183,3.93-0.59,5.146c0,0-3.164,10.051-4.25,14.17
				c-0.266,1.004-0.872,3.635-1.642,7.051c-0.156-7.201-0.317-13.297-0.432-15.137c-0.318-5.186-1.713-17.957-1.713-17.957
				c-0.199-1.555,0.237-5.219,0.518-6.295c0.28-1.076,1.752-4.502,1.752-7.5c0-1.484-2.071-7.162-3.266-8.236
				c-1.195,1.074-3.269,6.752-3.269,8.236c0,2.998,1.476,6.424,1.754,7.5c0.278,1.076,0.718,4.74,0.518,6.295
				c0,0-1.395,12.771-1.712,17.957c-0.113,1.84-0.276,7.932-0.433,15.131c-0.769-3.414-1.376-6.041-1.641-7.045
				c-1.086-4.119-4.251-14.17-4.251-14.17c-0.408-1.217-0.642-4.234-0.59-5.146c0.052-0.908,0.688-3.898,0.21-6.311
				c-0.238-1.193-2.812-5.428-3.945-6.102c-0.789,1.057-1.547,5.955-1.311,7.146c0.479,2.412,2.215,4.932,2.608,5.752
				c0.398,0.82,1.336,3.697,1.424,4.979c0,0,0.924,10.496,1.496,14.717c0.14,1.031,0.584,3.693,1.183,7.145
				c-2.9-6.594-5.383-12.164-6.191-13.82c-2.276-4.668-8.455-15.936-8.455-15.936c-0.776-1.359-1.774-4.912-1.93-6.014
				c-0.154-1.1-0.104-4.828-1.252-7.6c-0.566-1.371-4.652-5.824-6.17-6.359c-0.691,1.449-0.435,7.488,0.135,8.859
				c1.147,2.771,3.82,5.373,4.49,6.258c0.67,0.889,2.477,4.105,2.887,5.617c0,0,3.601,12.334,5.289,17.248
				c0.6,1.742,2.781,7.436,5.393,14.146c-2.016-2.861-3.584-5.057-4.213-5.885c-2.578-3.391-9.348-11.465-9.348-11.465
				c-0.844-0.969-2.215-3.664-2.516-4.527c-0.301-0.859-0.855-3.867-2.224-5.91c-0.675-1.012-4.674-3.939-5.979-4.127
				c-0.324,1.277,0.849,6.09,1.524,7.104c1.366,2.045,3.933,3.709,4.612,4.314c0.68,0.607,2.647,2.906,3.22,4.055
				c0,0,4.868,9.344,7.014,13.025c0.523,0.898,1.951,3.186,3.822,6.143c-5.199-4.98-9.625-9.174-11.004-10.395
				c-3.893-3.441-13.91-11.488-13.91-11.488c-1.238-0.957-3.52-3.857-4.086-4.816c-0.562-0.957-1.94-4.422-4.062-6.541
				c-1.049-1.049-6.529-3.6-8.135-3.516c-0.084,1.605,2.467,7.086,3.516,8.135c2.121,2.121,5.584,3.5,6.541,4.062
				c0.959,0.566,3.859,2.846,4.818,4.086c0,0,8.047,10.018,11.485,13.91c1.222,1.379,5.415,5.803,10.396,11.004
				c-2.959-1.871-5.247-3.299-6.146-3.822c-3.68-2.146-13.023-7.014-13.023-7.014c-1.148-0.572-3.447-2.539-4.056-3.219
				c-0.605-0.682-2.27-3.246-4.313-4.611c-1.013-0.678-5.826-1.852-7.104-1.527c0.188,1.307,3.116,5.305,4.13,5.98
				c2.044,1.365,5.05,1.922,5.91,2.221c0.86,0.301,3.56,1.672,4.527,2.516c0,0,8.073,6.768,11.463,9.348
				c0.827,0.629,3.023,2.197,5.884,4.213c-6.712-2.611-12.404-4.793-14.146-5.391c-4.912-1.691-17.246-5.291-17.246-5.291
				c-1.51-0.41-4.729-2.217-5.617-2.887c-0.885-0.67-3.486-3.344-6.258-4.49c-1.371-0.566-7.41-0.826-8.859-0.135
				c0.535,1.518,4.988,5.604,6.361,6.17c2.77,1.148,6.498,1.098,7.598,1.252c1.103,0.154,4.654,1.152,6.015,1.93
				c0,0,8.213,4.501,13.52,7.236c0.452,0.123,0.907,0.247,1.369,0.371L204.033,125.177z"/>
			<path fill="#FFFFFF" d="M303.633,157.986c-0.597,0-1.116-0.045-1.59-0.139c-2.68-0.533-5.058-1.912-6.479-2.736
				c-0.206-0.119-0.377-0.221-0.508-0.289c-0.365-0.162-1.949-0.688-2.929-0.881l-1.125-0.226l-0.915-0.69
				c-2.96-2.234-6.791-3.529-11.387-3.846c-1.84-0.137-3.764-0.205-5.742-0.205c-6.578,0-13.241,0.746-19.686,1.467
				c-3.087,0.344-6.232,0.695-9.352,0.967c-1.756,0.162-3.998,0.242-6.827,0.242c-3.732,0-7.742-0.137-11.62-0.271
				c-2.96-0.102-5.39-0.18-7.48-0.203l-4.146-0.049l-0.721-4.082c-0.507-2.873-1.232-5.428-2.155-7.592l-0.27-0.633l-0.246-1.889
				l-5.11-5.682c-1.328-0.593-2.464-1.104-3.385-1.523l-0.418-0.215l-2.744-1.575l-1.262-0.343l-0.47-0.241
				c-5.302-2.733-13.294-7.111-13.632-7.296c-0.805-0.437-3.521-1.239-4.314-1.364c-0.152-0.018-0.414-0.03-0.729-0.051
				c-1.934-0.122-5.171-0.327-8.078-1.533c-2.226-0.918-7.999-5.829-9.162-9.125l-1.494-4.24l4.058-1.936
				c0.882-0.42,2.334-0.903,5.771-0.903c1.474,0,5.119,0.091,7.149,0.93c2.918,1.207,5.355,3.357,6.812,4.642
				c0.235,0.208,0.429,0.382,0.571,0.496c0.092,0.066,0.225,0.152,0.386,0.252c-1.542-1.999-3.013-4.476-3.271-6.273l-0.642-4.454
				l4.36-1.106c0.555-0.141,1.147-0.209,1.813-0.209c1.219,0,3.262,0.311,5.203,0.818c-0.158-0.114-0.294-0.207-0.396-0.27
				c-0.126-0.068-0.361-0.18-0.645-0.319c-1.741-0.853-4.654-2.28-6.882-4.508c-1.707-1.706-5.155-8.447-4.974-11.931l0.235-4.497
				l4.839-0.244c3.275,0,9.804,3.196,11.589,4.982c2.228,2.225,3.655,5.14,4.509,6.881c0.14,0.283,0.25,0.519,0.34,0.681
				c0.061,0.097,0.15,0.229,0.264,0.384c-0.659-2.435-1.07-5.282-0.624-7.041l1.105-4.358l4.451,0.64
				c1.798,0.259,4.273,1.728,6.271,3.269c-0.107-0.174-0.2-0.316-0.272-0.416c-0.089-0.11-0.264-0.303-0.471-0.538
				c-1.284-1.456-3.435-3.893-4.642-6.808c-0.923-2.228-1.529-9.775-0.026-12.925l1.936-4.059l4.24,1.496
				c3.294,1.161,8.206,6.933,9.128,9.165c1.203,2.903,1.408,6.141,1.53,8.074c0.021,0.315,0.033,0.577,0.055,0.762
				c0.02,0.113,0.052,0.27,0.096,0.457c0.323-2.502,1.034-5.291,2.12-6.744l2.693-3.607l3.869,2.302
				c1.558,0.927,3.278,3.229,4.536,5.414c-0.032-0.199-0.063-0.366-0.094-0.485c-0.041-0.143-0.129-0.39-0.23-0.688
				c-0.628-1.835-1.68-4.905-1.68-8.053c0-2.414,2.329-9.621,4.925-11.954l3.345-3.01l3.345,3.012
				c2.592,2.333,4.92,9.539,4.92,11.952c0,3.147-1.05,6.218-1.677,8.053c-0.103,0.299-0.19,0.545-0.241,0.724
				c-0.025,0.111-0.056,0.267-0.086,0.455c1.257-2.188,2.98-4.492,4.54-5.419l3.865-2.3l2.694,3.602
				c1.085,1.45,1.796,4.236,2.12,6.736c0.047-0.193,0.08-0.357,0.1-0.477c0.018-0.153,0.03-0.415,0.051-0.731
				c0.122-1.935,0.327-5.171,1.529-8.076c0.926-2.233,5.838-8,9.127-9.162l4.241-1.497l1.937,4.06
				c1.5,3.145,0.896,10.69-0.023,12.921c-1.206,2.912-3.351,5.345-4.631,6.799c-0.21,0.238-0.387,0.433-0.502,0.579
				c-0.066,0.093-0.153,0.226-0.255,0.388c2-1.54,4.479-3.011,6.273-3.269l4.454-0.64l1.104,4.362
				c0.443,1.755,0.033,4.597-0.623,7.028c0.118-0.163,0.213-0.302,0.276-0.406c0.072-0.131,0.185-0.367,0.323-0.65
				c0.854-1.741,2.28-4.654,4.506-6.881c1.792-1.789,8.316-4.981,11.591-4.981l0.342,0.009l4.492,0.235l0.24,4.49
				c0.186,3.479-3.26,10.226-4.966,11.935c-2.229,2.228-5.139,3.654-6.876,4.507c-0.285,0.14-0.522,0.252-0.687,0.344
				c-0.094,0.058-0.22,0.143-0.367,0.249c1.94-0.507,3.984-0.818,5.204-0.818c0.666,0,1.26,0.068,1.814,0.209l4.363,1.108
				l-0.646,4.456c-0.26,1.795-1.727,4.266-3.265,6.262c0.171-0.105,0.312-0.198,0.41-0.27c0.115-0.093,0.31-0.268,0.547-0.477
				c1.454-1.283,3.891-3.43,6.801-4.635c2.033-0.84,5.68-0.931,7.151-0.931c3.438,0,4.892,0.483,5.772,0.903l4.057,1.936
				l-1.494,4.239c-0.422,1.196-1.271,2.434-2.754,4.014l-1.881,2.004l-3.041-0.579c-1.143-0.223-2.339-0.456-3.477-0.456
				c-1.146,0-2.106,0.226-3.024,0.708c-1.826,0.963-3.598,2.506-4.986,4.343l-0.884,1.167l-1.373,0.508
				c-0.129,0.048-0.238,0.09-0.333,0.127l-0.183,6.177c-0.021,0.707,0.008,1.428,0.087,2.142l0.442,4.001l0.322,0.034l1.238,2.401
				c0.361,0.7,0.784,1.414,1.294,2.181l4.567,6.871l-2.952,0.312c2.468,1.266,5.445,3.32,6.528,5.143l2.295,3.865l-3.6,2.693
				C310.563,157.578,304.683,157.986,303.633,157.986z M222.101,141.266c1.147,0.034,2.379,0.075,3.716,0.121
				c2.18,0.074,4.401,0.15,6.573,0.201l4.977-2.189l-7.077-0.153l3.312-0.744l-13.139-2.269
				C221.089,137.796,221.636,139.479,222.101,141.266z"/>
		</g>
	</g>
	<g>
		<path fill="#F8C300" d="M204.033,125.177c2.605,1.187,6.812,3.054,11.559,5.141c-2.059-0.355-3.825-0.655-5.144-0.871
			c0,0,3.829,3.783,4.766,5.298c0.743,1.202,1.689,3.562,2.011,5.209c0.386,1.979,0.479,3.478,0.826,6.224
			c2.213,0.025,4.823,0.111,7.594,0.207c3.844,0.131,7.818,0.266,11.45,0.266c2.665,0,4.757-0.072,6.396-0.225
			c3.067-0.266,6.193-0.615,9.218-0.953c6.583-0.736,13.39-1.498,20.25-1.498c2.098,0,4.146,0.072,6.086,0.217
			c5.604,0.387,10.323,2.025,14.057,4.846c1.426,0.283,3.485,0.971,4.162,1.299c0.82,0.395,3.338,2.127,5.751,2.606
			c1.193,0.236,6.092-0.52,7.146-1.309c-0.674-1.133-4.907-3.707-6.102-3.947c-2.413-0.479-5.4,0.158-6.312,0.211
			c-0.911,0.053-3.931-0.182-5.146-0.59c0,0-10.051-3.166-14.17-4.25c-1.005-0.266-3.633-0.873-7.049-1.641
			c7.2-0.156,13.295-0.318,15.133-0.432c3.81-0.233,11.707-1.048,15.634-1.464c-0.568-0.856-1.102-1.74-1.573-2.657
			c-4.194-0.438-10.709-1.091-14.061-1.297c-1.838-0.113-7.934-0.275-15.135-0.432c3.416-0.768,6.046-1.375,7.051-1.641
			c4.119-1.086,14.168-4.252,14.168-4.252c1.219-0.408,4.236-0.641,5.146-0.588c0.079,0.004,0.19,0.018,0.3,0.03
			c-0.104-0.937-0.145-1.884-0.115-2.839c-0.271,0.158-0.511,0.295-0.67,0.371c-0.821,0.396-3.698,1.336-4.979,1.424
			c0,0-10.495,0.922-14.718,1.496c-1.029,0.139-3.691,0.584-7.144,1.182c6.594-2.9,12.164-5.383,13.817-6.191
			c4.671-2.277,15.938-8.453,15.938-8.453c0.375-0.216,0.921-0.447,1.534-0.674c1.779-2.354,4.114-4.417,6.646-5.751
			c1.643-0.864,3.393-1.284,5.354-1.284c1.619,0,3.122,0.293,4.447,0.552c0.104,0.021,0.202,0.038,0.306,0.058
			c0.836-0.891,1.498-1.728,1.684-2.254c-1.449-0.691-7.488-0.432-8.858,0.135c-2.771,1.146-5.371,3.82-6.259,4.49
			c-0.889,0.67-4.104,2.477-5.616,2.887c0,0-12.334,3.6-17.248,5.289c-1.741,0.6-7.436,2.783-14.146,5.395
			c2.861-2.018,5.06-3.586,5.886-4.215c3.392-2.578,11.466-9.348,11.466-9.348c0.967-0.844,3.665-2.215,4.525-2.516
			c0.859-0.299,3.867-0.855,5.912-2.221c1.012-0.676,3.938-4.674,4.127-5.98c-1.277-0.324-6.092,0.85-7.104,1.527
			c-2.045,1.365-3.709,3.93-4.314,4.611c-0.606,0.68-2.906,2.646-4.057,3.219c0,0-9.343,4.869-13.024,7.014
			c-0.896,0.523-3.188,1.953-6.146,3.826c4.98-5.203,9.178-9.629,10.396-11.008c3.443-3.893,11.488-13.91,11.488-13.91
			c0.957-1.24,3.858-3.52,4.817-4.084c0.957-0.564,4.421-1.943,6.544-4.064c1.047-1.049,3.598-6.529,3.512-8.135
			c-1.605-0.084-7.084,2.465-8.135,3.514c-2.119,2.121-3.5,5.586-4.062,6.543c-0.563,0.959-2.846,3.859-4.086,4.816
			c0,0-10.016,8.047-13.908,11.488c-1.38,1.221-5.807,5.418-11.01,10.4c1.873-2.961,3.305-5.252,3.828-6.148
			c2.145-3.682,7.014-13.025,7.014-13.025c0.57-1.148,2.539-3.447,3.221-4.055c0.681-0.605,3.245-2.27,4.611-4.314
			c0.676-1.014,1.85-5.826,1.525-7.104c-1.307,0.188-5.306,3.115-5.981,4.127c-1.366,2.043-1.921,5.051-2.22,5.912
			c-0.303,0.861-1.672,3.559-2.516,4.525c0,0-6.77,8.074-9.349,11.465c-0.631,0.828-2.199,3.027-4.219,5.891
			c2.613-6.715,4.797-12.412,5.396-14.152c1.691-4.914,5.289-17.248,5.289-17.248c0.412-1.512,2.22-4.729,2.89-5.615
			c0.67-0.889,3.342-3.488,4.489-6.26c0.566-1.371,0.824-7.41,0.134-8.859c-1.517,0.535-5.604,4.988-6.172,6.359
			c-1.146,2.77-1.097,6.5-1.25,7.6c-0.154,1.102-1.15,4.654-1.931,6.014c0,0-6.176,11.268-8.455,15.936
			c-0.807,1.654-3.291,7.227-6.19,13.822c0.598-3.451,1.043-6.115,1.184-7.146c0.574-4.221,1.494-14.717,1.494-14.717
			c0.09-1.281,1.027-4.158,1.426-4.979c0.396-0.82,2.129-3.34,2.609-5.752c0.236-1.193-0.521-6.092-1.312-7.146
			c-1.133,0.674-3.709,4.908-3.946,6.102c-0.478,2.412,0.157,5.402,0.211,6.311c0.053,0.912-0.183,3.93-0.59,5.146
			c0,0-3.164,10.051-4.25,14.17c-0.266,1.004-0.872,3.635-1.642,7.051c-0.156-7.201-0.317-13.297-0.432-15.137
			c-0.318-5.186-1.713-17.957-1.713-17.957c-0.199-1.555,0.237-5.219,0.518-6.295c0.28-1.076,1.752-4.502,1.752-7.5
			c0-1.484-2.071-7.162-3.266-8.236c-1.195,1.074-3.269,6.752-3.269,8.236c0,2.998,1.476,6.424,1.754,7.5
			c0.278,1.076,0.718,4.74,0.518,6.295c0,0-1.395,12.771-1.712,17.957c-0.113,1.84-0.276,7.932-0.433,15.131
			c-0.769-3.414-1.376-6.041-1.641-7.045c-1.086-4.119-4.251-14.17-4.251-14.17c-0.408-1.217-0.642-4.234-0.59-5.146
			c0.052-0.908,0.688-3.898,0.21-6.311c-0.238-1.193-2.812-5.428-3.945-6.102c-0.789,1.057-1.547,5.955-1.311,7.146
			c0.479,2.412,2.215,4.932,2.608,5.752c0.398,0.82,1.336,3.697,1.424,4.979c0,0,0.924,10.496,1.496,14.717
			c0.14,1.031,0.584,3.693,1.183,7.145c-2.9-6.594-5.383-12.164-6.191-13.82c-2.276-4.668-8.455-15.936-8.455-15.936
			c-0.776-1.359-1.774-4.912-1.93-6.014c-0.154-1.1-0.104-4.828-1.252-7.6c-0.566-1.371-4.652-5.824-6.17-6.359
			c-0.691,1.449-0.435,7.488,0.135,8.859c1.147,2.771,3.82,5.373,4.49,6.258c0.67,0.889,2.477,4.105,2.887,5.617
			c0,0,3.601,12.334,5.289,17.248c0.6,1.742,2.781,7.436,5.393,14.146c-2.016-2.861-3.584-5.057-4.213-5.885
			c-2.578-3.391-9.348-11.465-9.348-11.465c-0.844-0.969-2.215-3.664-2.516-4.527c-0.301-0.859-0.855-3.867-2.224-5.91
			c-0.675-1.012-4.674-3.939-5.979-4.127c-0.324,1.277,0.849,6.09,1.524,7.104c1.366,2.045,3.933,3.709,4.612,4.314
			c0.68,0.607,2.647,2.906,3.22,4.055c0,0,4.868,9.344,7.014,13.025c0.523,0.898,1.951,3.186,3.822,6.143
			c-5.199-4.98-9.625-9.174-11.004-10.395c-3.893-3.441-13.91-11.488-13.91-11.488c-1.238-0.957-3.52-3.857-4.086-4.816
			c-0.562-0.957-1.94-4.422-4.062-6.541c-1.049-1.049-6.529-3.6-8.135-3.516c-0.084,1.605,2.467,7.086,3.516,8.135
			c2.121,2.121,5.584,3.5,6.541,4.062c0.959,0.566,3.859,2.846,4.818,4.086c0,0,8.047,10.018,11.485,13.91
			c1.222,1.379,5.415,5.803,10.396,11.004c-2.959-1.871-5.247-3.299-6.146-3.822c-3.68-2.146-13.023-7.014-13.023-7.014
			c-1.148-0.572-3.447-2.539-4.056-3.219c-0.605-0.682-2.27-3.246-4.313-4.611c-1.013-0.678-5.826-1.852-7.104-1.527
			c0.188,1.307,3.116,5.305,4.13,5.98c2.044,1.365,5.05,1.922,5.91,2.221c0.86,0.301,3.56,1.672,4.527,2.516
			c0,0,8.073,6.768,11.463,9.348c0.827,0.629,3.023,2.197,5.884,4.213c-6.712-2.611-12.404-4.793-14.146-5.391
			c-4.912-1.691-17.246-5.291-17.246-5.291c-1.51-0.41-4.729-2.217-5.617-2.887c-0.885-0.67-3.486-3.344-6.258-4.49
			c-1.371-0.566-7.41-0.826-8.859-0.135c0.535,1.518,4.988,5.604,6.361,6.17c2.77,1.148,6.498,1.098,7.598,1.252
			c1.103,0.154,4.654,1.152,6.015,1.93c0,0,8.213,4.501,13.52,7.236C204.033,125.177,204.033,125.177,204.033,125.177z"/>
	</g>
	<path fill="#FFFFFF" d="M324.96,183.17C324.961,183.17,324.961,183.17,324.96,183.17c6.301,0,11.557-2.096,15.201-6.062
		c3.733-4.067,5.632-9.582,5.341-15.522c-0.312-6.354-3.068-12.305-7.565-16.33l-0.108-0.096c-3.376-2.852-7.297-4.25-10.756-5.484
		c-2.267-0.81-4.407-1.573-6.188-2.647l-0.1-0.059c-3.15-1.803-6.964-4.691-8.159-8.562c2.1,1.484,4.811,3.007,7.947,3.007
		c3,0,7.146-1.348,9.864-7.768l-1.42-0.711c0.78-0.927,1.456-1.967,2.065-2.998l1.065-6.238l-1.062-3.25l-0.021-4.875l-7.412,2.633
		c-0.811,0.508-1.55,0.725-2.472,0.725c-0.896,0-1.927-0.201-3.019-0.413c-1.326-0.259-2.829-0.552-4.448-0.552
		c-1.962,0-3.712,0.42-5.354,1.284c-4.415,2.327-8.242,6.867-9.548,11.314c-3.229,10.247,2.666,20.472,9.977,26.099
		c3.225,2.641,6.957,3.922,10.252,5.053c3.34,1.146,6.225,2.137,8.036,4.217l0.083,0.094c2.396,2.617,3.797,6.888,2.043,9.572
		c-0.344,0.428-1.27,1.367-4.034,1.367c-1.272,0-2.747-0.211-4.27-0.611c-9.859-2.938-18.312-9.51-26.749-16.496
		c-3.88-3.338-8.97-5.244-15.105-5.668c-1.94-0.145-3.988-0.217-6.086-0.217c-6.86,0-13.667,0.762-20.25,1.498
		c-3.023,0.338-6.149,0.688-9.218,0.953c-1.64,0.152-3.73,0.225-6.396,0.225c-3.632,0-7.605-0.135-11.45-0.266
		c-2.771-0.096-5.381-0.182-7.594-0.207c-0.553-3.131-1.372-6.086-2.479-8.684l-0.049-1.42l-0.311-1.329l-5.748-6.39
		c-0.037-0.041-0.074-0.081-0.11-0.121l-3.258-1.587c0,0-3.856-1.666-5.368-2.366c-4.156-1.926-8.402-3.418-11.853-2.668l0.178-3.52
		l-6.896,2.229c-2.483,0.802-4.494,1.903-6.088,3.16h-1.676c-0.896,0-2.995,0-5.599,3.827c-0.203,0.298-0.385,0.592-0.546,0.88
		c-2.562,0.707-5.572,2.468-8.143,6.507l-0.597,1.128l-0.71,1.216c-0.637,1.303-1.231,2.783-1.767,4.464l-1.246,2.367l1.176,1.664
		c-0.61,1.391-1.138,2.898-1.583,4.533c-0.213,0.846-0.357,1.635-0.498,2.396c-0.081,0.44-0.161,0.886-0.257,1.324l-0.159,0.729
		l1.931,9.393l1.708,3.352c0.266,0.604,0.559,1.217,0.879,1.838l0.22,0.422l0.361,0.461c0.12,0.152,0.265,0.334,0.351,0.438
		l1.812,2.16c0.432,0.957,0.947,1.896,1.548,2.806l0.062,0.092c0.25,0.358,0.511,0.713,0.771,1.065
		c0.222,0.295,0.441,0.593,0.648,0.896l2.606,3.845c0.863,1.991,1.873,3.623,3.236,4.772l2.482,2.83l3.015,1.982
		c2.746,2.896,6.189,5.475,9.745,6.635l0.133,0.043c0.117,0.295,0.244,0.574,0.382,0.844l-1.282,2.019
		c-1.189,1.868-1.219,4.139-1.261,7.571c-0.025,2.129-0.062,5.066-0.495,7.267c-0.444,0.088-0.895,0.168-1.354,0.25
		c-3.276,0.59-6.991,1.258-10.233,4.569l-0.559,0.57l-0.354,0.717c-1.996,4.051-0.08,7.674,0.947,9.621
		c0.125,0.236,0.249,0.469,0.361,0.697l0.965,1.959l7.174,0.18l0.45,0.021c1.924,0.078,3.266,0.112,4.487,0.112c0,0,0,0,0.001,0
		c1.878,0,3.353-0.079,5.795-0.213l3.41-0.184l1.382-1.518c1.521-1.672,3.159-3.434,4.87-5.238l1.713-1.807l-0.41-2.457
		c-0.107-0.646-0.019-1.547,0.087-2.59c0.011-0.105,0.021-0.211,0.032-0.318c0.472-0.414,0.992-0.832,1.527-1.264
		c0.586-0.469,1.167-0.938,1.729-1.426l0.083-0.074c2.306-2.094,2.484-4.498,2.426-6.201c1.238,1.322,3.219,3.484,4.544,5.602
		c-4.455,2.006-6.577,5.676-6.666,9.152c-0.106,4.178,1.854,7.324,5.244,8.416l2.108,0.125l3.232-0.018l0.461-0.021
		c2.229-0.098,5.669-0.18,8.995-0.262c2.859-0.068,5.646-0.137,7.587-0.211l4.811-0.185v-4.812c0-1.443,0.164-2.062,0.391-2.916
		c0.473-1.777,0.827-3.512,0.37-6.744l-0.049-0.285c-0.214-1.061-0.659-1.932-2.512-5.447c-0.659-1.25-1.712-3.244-2.575-4.99
		c1.646-0.039,3.112-0.354,4.416-0.637c0.447-0.098,0.896-0.195,1.324-0.271c5.021-0.875,9.723-1.93,14.153-3.155l0.701,1.192
		c1.174,1.994,2.488,4.238,3.847,6.595c-1.291,1.122-2.418,2.073-3.934,3.106c-0.07,0.008-0.187,0.019-0.359,0.019
		c-0.453,0-1.037-0.062-1.653-0.13c-0.806-0.086-1.718-0.184-2.688-0.184c-2.181,0-4.023,0.504-5.64,1.545
		c-1.775,1.144-2.956,3.004-3.322,5.24c-0.588,3.582,1.021,7.93,2.831,10.201l1.472,1.846l5.513,0.035l0.511,0.01
		c2.409,0.047,4.566,0.076,6.723,0.076c0.001,0,0.001,0,0.002,0c2.322,0,4.492-0.035,6.829-0.109l3.041-0.096l1.312-2.746
		c1.631-3.412,4.857-5.686,8.596-8.316c2.165-1.522,4.404-3.1,6.477-5.024l3.455-3.211l-3.005-3.637
		c-0.538-0.652-1.104-1.291-1.674-1.933c-1.328-1.496-2.588-2.916-3.235-4.34c-0.247-1.396-0.062-3.096,0.148-4.891
		c1.066,0.791,2.139,1.561,3.201,2.316c4.392,3.117,8.539,6.062,10.973,10.399l0.941,1.677l1.821,0.614
		c1.095,0.367,2.274,0.687,3.417,0.992c0.674,0.18,1.378,0.368,2.062,0.569l-0.413,1.677c-4.06,2.323-4.696,6.747-5.046,9.184
		c-0.06,0.406-0.114,0.806-0.187,1.183l-1.147,6.022l6.131-0.088c0.621-0.008,1.793-0.033,2.537-0.054l0.013,0.027l3.148-0.012
		c4.218-0.02,8.429,0,12.64,0.018l7.317,0.029l0.238-4.768c0.153-3.066,0.327-6.131,0.502-9.195
		c0.225-3.947,0.448-7.895,0.63-11.846l0.124-2.732l-2.233-1.58c-0.959-0.678-1.93-1.35-2.904-2.022
		c-5.646-3.908-10.979-7.601-14.528-12.794c-1.547-2.206-1.93-5.352-2.333-8.684c-0.095-0.77-0.189-1.555-0.299-2.328
		c3.841,1.986,7.944,3.664,12.365,4.615C320.733,182.934,322.87,183.17,324.96,183.17z"/>
	<g>
		<path fill="#F8C300" d="M193.049,156.246c0.108-0.068,0.33-0.207,0.442-0.279c-0.188-1.111-0.598-2.342,0.056-3.391
			c1.141,0.1,2.396,0.49,3.475-0.082c1.309-0.586,1.536-2.346,2.944-2.799c0.036-0.098,0.104-0.297,0.137-0.393
			c-1.171,0.016-2.266-0.387-3.359-0.742c-1.398,0.307-2.717,0.926-4.092,1.32c-0.206-0.115-0.412-0.223-0.615-0.334
			c-0.146-0.109-0.44-0.328-0.586-0.439c-0.238,0.771-0.523,1.588-0.244,2.395C191.694,153.129,192.526,154.629,193.049,156.246z
			 M194.848,150.748c0.575,0.277,1.137,0.066,1.547-0.379c-0.024-0.285-0.074-0.863-0.099-1.146
			c0.556,0.156,1.111,0.326,1.662,0.508c-0.2,0.881-0.673,1.791-1.589,2.085c-0.965,0.425-2.078,0.025-2.757-0.727
			c-0.143-0.277-0.278-0.559-0.414-0.834C193.844,150.1,194.574,149.957,194.848,150.748z"/>
		<path fill="#F8C300" d="M180.379,152.658c0.55-0.248,0.979,0.193,1.257,0.621c-0.022,0.398-0.056,0.797-0.105,1.193
			c-0.33,0.977-0.638,1.957-0.904,2.955c0.055,0.229,0.199,0.342,0.438,0.327c0.739-1.801,1.47-3.603,2.215-5.397
			c0.44-0.943,0.332-1.986,0.221-2.982c-0.118-0.051-0.354-0.145-0.475-0.197c-0.17,0.176-0.506,0.521-0.678,0.691
			c-0.125-0.029-0.373-0.1-0.497-0.129c-1.302-0.285-2.499-0.908-3.797-1.18c-1.07,0.307-2.127,0.689-3.247,0.793
			c-0.143-0.111-0.428-0.332-0.57-0.438c-0.268,0.049-0.52,0.156-0.753,0.326c-0.006,0.172-0.016,0.51-0.019,0.674
			c0.326-0.227,0.631-0.477,0.946-0.721c1.179,0.889,2.031,2.08,2.973,3.195C178.324,152.824,179.373,152.975,180.379,152.658z
			 M178.007,151.615c-0.759-0.35-0.985-1.186-1.233-1.904c0.535-0.156,1.074-0.312,1.614-0.469c0.06,0.549-0.135,1.486,0.634,1.607
			c0.654,0.32,1.027-0.389,1.37-0.803c0.389,0.104,0.778,0.207,1.164,0.33c-0.288,0.412-0.573,0.834-0.919,1.207
			C179.815,151.953,178.801,152.178,178.007,151.615z"/>
		<path fill="#F8C300" d="M181.43,161.354c-0.109,0.021-0.324,0.058-0.432,0.07c0.194,1.254,1.36,1.902,2.34,2.506
			c0.313-0.164,0.633-0.328,0.949-0.494c0.685,0.359,1.092,0.963,1.069,1.746c0.67,0.445,1.349,0.871,2.033,1.291
			c0.655-0.44,1.325-0.859,1.99-1.277c0.098-0.448,0.088-0.944,0.336-1.344c0.522-0.518,1.221-0.108,1.805,0.039
			c0.967-0.625,2.005-1.328,2.262-2.543c-0.563,0.047-0.891,0.566-1.408,0.717c-0.743-0.102-1.436-0.506-2.204-0.479
			c-0.989-0.039-1.842,0.537-2.773,0.776c-0.971-0.151-1.805-0.86-2.826-0.784C183.481,161.506,182.173,162.729,181.43,161.354z"/>
		<path fill="#F8C300" d="M187.399,192.752c5.445-2.09,12.062-10.207,12.179-12.326c0.659,0.461,0.979,1.195,1.239,1.93
			c2.181-1.604,3.65-8.028,4.558-10.549c0.229-0.705,0.395-1.428,0.558-2.146c0.077,0.051,0.229,0.155,0.309,0.202
			c0.105,1.07,0.174,2.158-0.068,3.216c-0.094,0.519-0.201,1.032-0.271,1.555c0.461-0.682,0.979-1.325,1.446-2.004
			c1.406-2.129,2.302-4.646,2.285-7.215c-0.006-0.776-0.129-1.541-0.246-2.304c0.082,0.017,0.246,0.045,0.327,0.062
			c0.952,1.125,1.202,2.611,1.339,4.031c0.081-0.098,0.24-0.303,0.32-0.406c0.828-1.602,1.436-9.043-0.805-14.398
			c1.448,0.002,2.879,2.8,3.353,4.019c0-11.404-3.694-25.393-11.979-23.975c2.463-1.229,1.79-0.592,3.809-0.744
			c-3.357-3.732-8.666-2.518-10.15-1.791c0.639-1.678,1.869-1.941,3.834-2.799c-14.59-3.922-16.887,5.793-16.977,5.779
			c-0.334-1.871-0.433-4.047,0.979-6.812c0.125-0.32,0.244-0.648,0.262-0.996c-6.612,2.137-7.902,6.629-7.577,7.812
			c-1.722-1.277-0.703-1.613-1.722-4.41c-0.084-0.02-2.852,2.586-2.164,4.328c-7.725-0.855-10.34,10.204-10.59,10.678
			c0.04,0.057,1.91-0.91,2.938-1.121c0.056,0.035,0.165,0.1,0.221,0.135c-0.006,0.037-0.02,0.111-0.028,0.15
			c-1.029,0.988-1.848,2.178-2.522,3.432c-0.875,1.65-1.526,3.406-2.019,5.207c-0.297,1.179-0.46,2.379-0.719,3.563l0.038,0.469
			c0.491-0.803,0.914-1.645,1.424-2.438c0.453-0.658,0.945-1.291,1.435-1.928c0.246-0.107,0.487-0.215,0.735-0.318
			c-0.178,0.371-0.36,0.74-0.539,1.119c-0.395,0.844-0.693,1.73-0.936,2.635c-0.025,0.084-0.076,0.267-0.103,0.354
			c-0.336,1.713-0.463,3.459-0.373,5.203c0.133,0.598,0.238,1.19,0.331,1.795c0.389,1.767,1.069,3.45,1.899,5.053
			c0.08,0.103,0.238,0.31,0.32,0.406c0.137-1.42,0.386-2.91,1.338-4.031c0.082-0.019,0.246-0.047,0.328-0.062
			c-0.118,0.762-0.241,1.529-0.246,2.303c-0.019,2.566,0.878,5.086,2.284,7.215c0.47,0.678,0.986,1.324,1.447,2.004
			c-0.068-0.521-0.178-1.037-0.271-1.555c-0.244-1.055-0.176-2.145-0.068-3.215c0.076-0.049,0.23-0.154,0.308-0.203
			c0.162,0.719,0.332,1.441,0.559,2.146c0.904,2.518,2.377,8.944,4.557,10.549c0.259-0.734,0.578-1.469,1.239-1.931
			C175.338,182.543,180.998,190.662,187.399,192.752z M193.752,177.955c-0.482,0.051-0.545-0.598-0.812-0.871
			c-0.489,0.328-0.718,0.9-1.002,1.389c-0.438-0.393-0.824-0.895-1.42-1.049c-0.313,0.391-0.408,1.217-1.039,1.168
			c-0.223-0.26-0.432-0.525-0.645-0.795c-0.101,0.021-0.302,0.057-0.402,0.074c-0.242,0.525-0.578,1.006-1.037,1.367
			c-0.461-0.361-0.797-0.842-1.041-1.367c-0.099-0.021-0.303-0.055-0.4-0.074c-0.212,0.27-0.424,0.535-0.646,0.795
			c-0.629,0.049-0.726-0.777-1.04-1.168c-0.596,0.156-0.979,0.656-1.42,1.049c-0.282-0.492-0.51-1.061-1.001-1.389
			c-0.267,0.275-0.331,0.922-0.812,0.871c-0.634-1.027-1.002-2.338-0.556-3.504c0.588-1.191,1.939-1.615,3.051-2.158
			c1.248-0.543,2.446-1.373,3.863-1.352c1.415-0.021,2.612,0.807,3.861,1.352c1.111,0.543,2.463,0.965,3.05,2.158
			C194.754,175.619,194.385,176.928,193.752,177.955z M204.383,135.75c0.112,0.01,1.803,1.049,2.17,1.453
			c1.952,2.455,1.337,5.825,0.676,8.641c-0.104,0-0.315,0.008-0.423,0.008c-0.716-1.342-1.713-2.525-2.978-3.375
			c-0.026-0.055-0.076-0.154-0.102-0.209c0.022-0.07,0.065-0.221,0.087-0.297c0.557,0.096,1.101,0.223,1.646,0.371
			c0.14,0.023,0.426,0.07,0.565,0.102c-0.104-0.197-0.213-0.389-0.315-0.586c-0.862-1.317-2.301-2.03-3.816-2.305l-0.016-0.156
			c0.971-0.338,1.998-0.375,2.986-0.088c0.032-0.059,0.098-0.166,0.133-0.223c-0.562-0.332-1.119-0.656-1.683-0.986
			c-1.307-0.373-2.676-0.471-4.026-0.334l-0.513,0.055C200.242,136.4,202.244,135.087,204.383,135.75z M167.983,145.848
			c-0.105,0-0.316-0.006-0.423-0.006c-0.66-2.816-1.274-6.186,0.679-8.643c0.175-0.191,0.939-1.021,2.169-1.453
			c2.139-0.66,4.141,0.65,5.606,2.07l-0.512-0.055c-1.352-0.139-2.722-0.041-4.027,0.334c-0.559,0.33-1.119,0.652-1.681,0.986
			c0.036,0.057,0.101,0.164,0.132,0.221c0.988-0.285,2.018-0.25,2.987,0.088l-0.016,0.154c-1.516,0.279-2.955,0.992-3.815,2.309
			c-0.105,0.197-0.212,0.391-0.316,0.584c0.141-0.027,0.427-0.074,0.566-0.1c0.545-0.148,1.089-0.277,1.645-0.371
			c0.021,0.076,0.064,0.227,0.087,0.297c-0.023,0.055-0.074,0.156-0.101,0.209C169.694,143.324,168.699,144.51,167.983,145.848z
			 M171.738,156.002c-1.13-2.586-0.851-5.67,0.429-8.148c1.18-2.059,2.911-3.719,4.351-5.588c0.324-0.309,0.215-0.756,0.211-1.153
			c-0.453-0.014-0.903-0.031-1.363-0.055c-0.131-0.02-0.395-0.053-0.522-0.07c0.332-0.256,0.668-0.512,1.002-0.766
			c1.041-0.346,2.215-0.406,3.115-1.1c-0.439-0.314-0.908-0.592-1.416-0.779c-0.201-0.066-0.597-0.203-0.795-0.273
			c0.374-0.037,3.359-0.066,3.359-0.066c1.749,0.312,3.685,0.549,5.029,1.83c1.171,0.979,1.772,2.426,2.13,3.87
			c0.03-0.008,0.077-0.021,0.125-0.037c0.045,0.016,0.094,0.029,0.123,0.037c0.357-1.441,0.96-2.891,2.131-3.87
			c1.347-1.281,1.781-1.826,3.533-2.135l2.053-0.174c0.703-0.314,2.431,0.508,2.806,0.545c-0.199,0.066-0.595,0.207-0.795,0.275
			c-0.508,0.186-0.979,0.465-1.416,0.779c0.897,0.691,2.071,0.752,3.114,1.098c0.333,0.256,0.668,0.51,1.002,0.768
			c-0.13,0.018-0.394,0.051-0.524,0.07c-0.458,0.021-0.91,0.039-1.363,0.053c-0.003,0.397-0.11,0.844,0.212,1.153
			c1.44,1.869,3.171,3.533,4.352,5.588c1.283,2.482,1.563,5.562,0.432,8.148c-0.727,1.512-6.098,7.146-6.141,7.537
			c0.169,0.67,0.423,1.416,0.729,2.406c0.13,1.756-0.094,2.992-0.36,4.082c-0.233,0.979-0.505,2.195-1.608,2.531
			c-1.426,0.502-2.666-0.57-3.916-1.074c-1.647-0.826-3.899-1.414-4.257-3.537c-0.025-0.004-0.064-0.014-0.101-0.021
			c-0.037,0.008-0.074,0.018-0.1,0.021c-0.357,2.123-2.607,2.711-4.258,3.537c-1.247,0.504-2.489,1.576-3.916,1.074
			c-1.105-0.336-1.377-1.552-1.609-2.531c-0.266-1.09-0.488-2.326-0.359-4.082c0.307-0.988,0.562-1.736,0.729-2.406
			C177.834,163.148,172.463,157.514,171.738,156.002z"/>
		<path fill="#F8C300" d="M274.963,195.912c-5.244,3.875-9.513,4.445-16.26,6.74c2,3.4,3.988,6.811,5.93,10.24
			c-3,2.459-4.71,4.278-7.96,6.43c-3.12,1.631-7.057-0.875-10,1.02c-2.316,1.492-0.67,6.391,0.71,8.121
			c0.82-1.621,1.086-3.051,2.439-3.871c-0.354,1.695,0.021,3.07,1.238,3.881c4.771,0.09,8.541,0.119,13.302-0.031
			c3.32-6.948,10.801-9.85,16.181-14.85c-2.09-2.529-4.643-4.85-5.852-7.969C273.934,202.422,274.713,199.123,274.963,195.912z"/>
		<path fill="#F8C300" d="M334.602,148.979c-4.688-3.959-11.131-4.551-16.301-7.67c-5.049-2.889-10.002-7.312-10.91-13.43
			c-0.885-5.959,1.664-6.654,4.33-6.182c2.242,0.586,9.746,10.312,14.112,0c-1.377,2.357-6.237,2.064-6.973-1.291
			c3.232-0.338,4.139,3.381,7.918-3.014c-4.002,1.723-6.451,0.008-6.928-1.16c5.681,0.646,4.465-0.658,6.455-3.787
			c-6.104,3.822-10.945-1.23-15.613,1.229c-3.375,1.779-6.211,5.266-7.096,8.346c-2.488,7.803,2.17,16.041,8.303,20.731
			c5.607,4.641,14.027,4.25,18.947,9.899c3.771,4.117,5.812,10.947,2.41,15.879c-3.17,4.171-9.16,3.853-13.709,2.642
			c-10.898-3.229-20.041-10.381-28.658-17.521c-3.395-2.919-7.83-4.169-12.213-4.472c-11.629-0.857-23.182,1.229-34.729,2.229
			c-7.039,0.646-19.402-0.188-26.479-0.236c1.102,6.979,2.058,13.007,0.75,14.621c-0.188-1.946-2.142-4.604-2.25-4.625
			c0.949,6.127-2.899,15.188-4.125,17c0.246-1.86-0.359-3.254-1.056-4.463c-2.18,5.213-4.532,11.769-8.194,14.463
			c0.375-1.375,0.231-2.985-0.673-3.617c-0.538,4.981-9.407,11.832-11.55,10.363c0.801,3.476,4.551,4.196,5.227,4.75
			c0,0,9.372,4.875,13.944,5.375c1.253,1.83,9.178,8.5,9.216,14.75c-6.038,0.5-7.97,3.608-8.024,5.75
			c-0.04,1.562,0.381,3.078,1.78,3.528c0.581-2.028,1.406-3.153,3.42-4.021c-0.714,1.742,0.08,2.565,0.63,3.871
			c4.2-0.185,12.41-0.313,16.61-0.476c0-4.653,1.45-4.43,0.81-8.959c-0.21-1.045-5.973-10.912-6.514-13.694
			c-0.143-0.731-4.447-15.556-4.846-16.414c2.02-0.052,9.319,13.584,10.049,13.653c2.053,0.195,4.016-0.446,6.009-0.803
			c12.988-2.262,25.938-6.012,37.261-12.949c6.7,7.729,17.062,11.029,22.229,20.238c2.909,0.98,6.988,1.66,9.659,3.24
			c2.949,2.141,3.529,5.029,4.562,8.279c-2.642,0.16-5.392-0.209-7.93,0.621c-2.73,1.277-2.66,4.607-3.144,7.139
			c0.682-0.01,2.041-0.039,2.723-0.059c0.318-1.394,0.659-2.771,1-4.15c0.681,1.391,1.351,2.77,2.027,4.17
			c5.08-0.02,10.148,0.01,15.223,0.029c0.351-7.01,0.81-14.01,1.13-21.02c-6.682-4.724-13.939-9.148-18.642-16.029
			c-2.961-4.221-2.858-9.562-3.682-14.439c-0.568-3.721-2.121-7.17-3.631-10.58c6.898,4.5,14.041,9.109,22.211,10.869
			c5.75,1.262,12.602,0.711,16.799-3.857C342.801,166.838,341.381,155.049,334.602,148.979z"/>
		<path fill="#F8C300" d="M189.297,203.092c-1.078,1.695,0.421,11.314-2.117,16.365c-4.786,1.436-8.75,0.92-11.87,4.107
			c-1.021,2.069,0.42,4.092,1.311,5.897c0.649-1.64,1.27-4.051,2.978-4.926c-0.503,1.875,0.482,2.896,1.333,4.297
			c5.05,0.209,6.109,0.101,11.17-0.17c1.63-1.791,3.28-3.562,4.939-5.312c-0.33-1.979,0.141-3.947,0.199-5.959
			c1.421-1.619,3.221-2.84,4.83-4.238c1.252-1.137,0.649-2.117,0.699-5.062C199.469,207.912,192.094,204.662,189.297,203.092z"/>
	</g>
</g>
</svg>